<?xml version="1.0" standalone="no"?><svg xmlns:xlink="http://www.w3.org/1999/xlink" xmlns="http://www.w3.org/2000/svg" viewBox="0 0 1000 636.3770429786933" preserveAspectRatio="xMaxYMax slice"><g transform="scale(1.602964843775046)"><rect x="0" y="0" width="623.8571428571429" height="397" fill="#ffffff"/><rect x="0" y="0" width="56.71" height="56.71" fill="#e4caf5"/><rect x="0" y="0" width="56.71" height="56.71" fill="#f4e9fb"/><rect x="56.714285714285715" y="0" width="56.714285714285715" height="56.714285714285715" fill="#ffffff"/><rect x="56.71" y="0" width="28.36" height="28.36" fill="#debef3"/><polygon points="85.07,0 85.07,28.36 56.71,28.36" fill="#e1c4f4"/><rect x="85.07" y="0" width="28.36" height="28.36" fill="#c893eb"/><polygon points="85.07,0 113.42999999999999,28.36 85.07,28.36" fill="#c0d5fb"/><rect x="56.71" y="28.36" width="28.36" height="28.36" fill="#e2ecfd"/><polygon points="56.71,28.36 85.07,28.36 85.07,56.72" fill="#e5eefd"/><rect x="85.07" y="28.36" width="28.36" height="28.36" fill="#ecd9f8"/><polygon points="85.07,28.36 113.42999999999999,28.36 85.07,56.72" fill="#ce9fed"/><rect x="113.43" y="0" width="56.71" height="56.71" fill="#ccddfb"/><path d="M 113.43 0 A 56.71 56.71 0 0 1 170.14000000000001 56.71 L 113.43 56.71" fill="#dfeafd"/><rect x="170.14" y="0" width="56.71" height="56.71" fill="#fcfdff"/><rect x="170.14" y="0" width="56.71" height="56.71" fill="#efe0f9"/><rect x="226.86" y="0" width="56.71" height="56.71" fill="#aec9f9"/><polygon points="226.86,0 283.57,0 226.86,56.71" fill="#e7effd"/><rect x="283.57" y="0" width="56.71" height="56.71" fill="#d0a2ee"/><polygon points="283.57,0 340.28,0 340.28,56.71" fill="#faf5fd"/><rect x="340.2857142857143" y="0" width="56.714285714285715" height="56.714285714285715" fill="#ffffff"/><rect x="340.29" y="0" width="28.36" height="28.36" fill="#cedffc"/><path d="M 340.29 28.36 A 28.36 28.36 0 0 1  368.65000000000003 0 L 368.65000000000003 28.36" fill="#ecf3fe"/><rect x="368.64" y="0" width="28.36" height="28.36" fill="#cfa1ed"/><path d="M 368.64 0 A 28.36 28.36 0 0 1 397 28.36 L 368.64 28.36" fill="#ead6f7"/><rect x="340.29" y="28.36" width="28.36" height="28.36" fill="#bad1fa"/><path d="M 340.29 28.36 A 28.36 28.36 0 0 0 368.65000000000003 56.72 L 368.65000000000003 28.36" fill="#fcf9fe"/><rect x="368.64" y="28.36" width="28.36" height="28.36" fill="#f8f2fc"/><path d="M 368.64 56.72 A 28.36 28.36 0 0 0 397 28.36 L 368.64 28.36" fill="#efdff9"/><rect x="397" y="0" width="56.71" height="56.71" fill="#e8d2f7"/><rect x="397" y="0" width="56.71" height="56.71" fill="#dbb9f2"/><rect x="453.71" y="0" width="56.71" height="56.71" fill="#b9d1fa"/><polygon points="510.41999999999996,0 510.41999999999996,56.71 453.71,56.71" fill="#ead7f7"/><rect x="510.43" y="0" width="56.71" height="56.71" fill="#fcf8fe"/><path d="M 510.43 0 A 56.71 56.71 0 0 0 567.14 56.71 L 567.14 0" fill="#dcbaf2"/><rect x="567.1428571428571" y="0" width="56.714285714285715" height="56.714285714285715" fill="#ffffff"/><rect x="567.14" y="0" width="28.36" height="28.36" fill="#dbe7fc"/><polygon points="595.5,0 595.5,28.36 567.14,28.36" fill="#c995eb"/><rect x="595.5" y="0" width="28.36" height="28.36" fill="#ce9fed"/><polygon points="595.5,0 623.86,28.36 595.5,28.36" fill="#e2c5f4"/><rect x="567.14" y="28.36" width="28.36" height="28.36" fill="#c9dbfb"/><polygon points="567.14,28.36 595.5,28.36 567.14,56.72" fill="#f6ecfc"/><rect x="595.5" y="28.36" width="28.36" height="28.36" fill="#c7dafb"/><polygon points="595.5,28.36 623.86,28.36 623.86,56.72" fill="#c4d8fb"/><rect x="0" y="56.71" width="56.71" height="56.71" fill="#fbfcff"/><polygon points="0,56.71 56.71,56.71 0,113.42" fill="#c6d9fb"/><rect x="56.714285714285715" y="56.714285714285715" width="56.714285714285715" height="56.714285714285715" fill="#ffffff"/><rect x="56.71" y="56.71" width="28.36" height="28.36" fill="#aecaf9"/><path d="M 56.71 56.71 A 28.36 28.36 0 0 1 85.07 85.07 L 56.71 85.07" fill="#bed4fa"/><rect x="85.07" y="56.71" width="28.36" height="28.36" fill="#efdff9"/><path d="M 85.07 85.07 A 28.36 28.36 0 0 1  113.42999999999999 56.71 L 113.42999999999999 85.07" fill="#dab7f2"/><rect x="56.71" y="85.07" width="28.36" height="28.36" fill="#d7b0f0"/><path d="M 56.71 113.42999999999999 A 28.36 28.36 0 0 0 85.07 85.07 L 56.71 85.07" fill="#dfbff3"/><rect x="85.07" y="85.07" width="28.36" height="28.36" fill="#aec9f9"/><path d="M 85.07 85.07 A 28.36 28.36 0 0 0 113.42999999999999 113.42999999999999 L 113.42999999999999 85.07" fill="#dde8fd"/><rect x="113.42857142857143" y="56.714285714285715" width="56.714285714285715" height="56.714285714285715" fill="#ffffff"/><rect x="113.43" y="56.71" width="28.36" height="28.36" fill="#d6e4fc"/><polygon points="141.79000000000002,56.71 141.79000000000002,85.07 113.43,85.07" fill="#dab7f1"/><rect x="141.79" y="56.71" width="28.36" height="28.36" fill="#c4d8fb"/><polygon points="141.79,56.71 170.14999999999998,56.71 141.79,85.07" fill="#dfeafd"/><rect x="113.43" y="85.07" width="28.36" height="28.36" fill="#bed4fa"/><polygon points="113.43,85.07 141.79000000000002,85.07 141.79000000000002,113.42999999999999" fill="#fcfdff"/><rect x="141.79" y="85.07" width="28.36" height="28.36" fill="#e6eefd"/><polygon points="141.79,85.07 170.14999999999998,113.42999999999999 141.79,113.42999999999999" fill="#c2d6fb"/><rect x="170.14285714285714" y="56.714285714285715" width="56.714285714285715" height="56.714285714285715" fill="#ffffff"/><rect x="170.14" y="56.71" width="28.36" height="28.36" fill="#d4aaef"/><polygon points="198.5,56.71 198.5,85.07 170.14,85.07" fill="#f9f2fd"/><rect x="198.5" y="56.71" width="28.36" height="28.36" fill="#d8e5fc"/><polygon points="198.5,56.71 226.86,85.07 198.5,85.07" fill="#f1f6fe"/><rect x="170.14" y="85.07" width="28.36" height="28.36" fill="#c7dafb"/><polygon points="170.14,85.07 198.5,85.07 198.5,113.42999999999999" fill="#d7e4fc"/><rect x="198.5" y="85.07" width="28.36" height="28.36" fill="#abc8f9"/><polygon points="198.5,85.07 226.86,85.07 198.5,113.42999999999999" fill="#f5ebfb"/><rect x="226.85714285714286" y="56.714285714285715" width="56.714285714285715" height="56.714285714285715" fill="#ffffff"/><rect x="226.86" y="56.71" width="28.36" height="28.36" fill="#e8d2f7"/><polygon points="255.22000000000003,56.71 255.22000000000003,85.07 226.86,85.07" fill="#efe0f9"/><rect x="255.21" y="56.71" width="28.36" height="28.36" fill="#b6cffa"/><polygon points="255.21,56.71 283.57,56.71 255.21,85.07" fill="#c894eb"/><rect x="226.86" y="85.07" width="28.36" height="28.36" fill="#c995eb"/><polygon points="226.86,85.07 255.22000000000003,85.07 255.22000000000003,113.42999999999999" fill="#f4f7fe"/><rect x="255.21" y="85.07" width="28.36" height="28.36" fill="#e8effd"/><polygon points="255.21,85.07 283.57,113.42999999999999 255.21,113.42999999999999" fill="#fcfdff"/><rect x="283.57142857142856" y="56.714285714285715" width="56.714285714285715" height="56.714285714285715" fill="#ffffff"/><rect x="283.57" y="56.71" width="28.36" height="28.36" fill="#f0e1f9"/><path d="M 283.57 85.07 A 28.36 28.36 0 0 1  311.93 56.71 L 311.93 85.07" fill="#d4e2fc"/><rect x="311.93" y="56.71" width="28.36" height="28.36" fill="#eddcf8"/><path d="M 311.93 56.71 A 28.36 28.36 0 0 1 340.29 85.07 L 311.93 85.07" fill="#cd9cec"/><rect x="283.57" y="85.07" width="28.36" height="28.36" fill="#d8b3f1"/><path d="M 283.57 85.07 A 28.36 28.36 0 0 0 311.93 113.42999999999999 L 311.93 85.07" fill="#ce9fed"/><rect x="311.93" y="85.07" width="28.36" height="28.36" fill="#cd9ded"/><path d="M 311.93 113.42999999999999 A 28.36 28.36 0 0 0 340.29 85.07 L 311.93 85.07" fill="#c0d5fb"/><rect x="340.2857142857143" y="56.714285714285715" width="56.714285714285715" height="56.714285714285715" fill="#ffffff"/><rect x="340.29" y="56.71" width="28.36" height="28.36" fill="#f0f5fe"/><circle cx="354.47" cy="70.89" r="14.18" fill="#cbdcfb"/><rect x="368.64" y="56.71" width="28.36" height="28.36" fill="#bdd3fa"/><rect x="368.64" y="56.71" width="28.36" height="28.36" fill="#cedffc"/><rect x="340.29" y="85.07" width="28.36" height="28.36" fill="#e8d1f6"/><circle cx="354.47" cy="99.25" r="14.18" fill="#eff5fe"/><rect x="368.64" y="85.07" width="28.36" height="28.36" fill="#f1e3fa"/><rect x="368.64" y="85.07" width="28.36" height="28.36" fill="#e9f0fd"/><rect x="397" y="56.71" width="56.71" height="56.71" fill="#e4cbf5"/><rect x="397" y="56.71" width="56.71" height="56.71" fill="#eedef9"/><rect x="453.7142857142857" y="56.714285714285715" width="56.714285714285715" height="56.714285714285715" fill="#ffffff"/><rect x="453.71" y="56.71" width="28.36" height="28.36" fill="#f8f2fd"/><path d="M 453.71 85.07 A 28.36 28.36 0 0 0 482.07 56.71 L 453.71 56.71" fill="#eff5fe"/><rect x="482.07" y="56.71" width="28.36" height="28.36" fill="#debdf3"/><path d="M 482.07 56.71 A 28.36 28.36 0 0 0 510.43 85.07 L 510.43 56.71" fill="#dce8fd"/><rect x="453.71" y="85.07" width="28.36" height="28.36" fill="#d2a6ee"/><path d="M 453.71 85.07 A 28.36 28.36 0 0 1 482.07 113.42999999999999 L 453.71 113.42999999999999" fill="#fefcff"/><rect x="482.07" y="85.07" width="28.36" height="28.36" fill="#f6f9fe"/><path d="M 482.07 113.42999999999999 A 28.36 28.36 0 0 1  510.43 85.07 L 510.43 113.42999999999999" fill="#debef3"/><rect x="510.43" y="56.71" width="56.71" height="56.71" fill="#e0eafd"/><rect x="510.43" y="56.71" width="56.71" height="56.71" fill="#cedefc"/><rect x="567.1428571428571" y="56.714285714285715" width="56.714285714285715" height="56.714285714285715" fill="#ffffff"/><rect x="567.14" y="56.71" width="28.36" height="28.36" fill="#bad1fa"/><path d="M 567.14 56.71 A 28.36 28.36 0 0 0 595.5 85.07 L 595.5 56.71" fill="#d8e5fc"/><rect x="595.5" y="56.71" width="28.36" height="28.36" fill="#eff4fe"/><path d="M 595.5 85.07 A 28.36 28.36 0 0 0 623.86 56.71 L 595.5 56.71" fill="#f7fafe"/><rect x="567.14" y="85.07" width="28.36" height="28.36" fill="#e2c6f4"/><path d="M 567.14 113.42999999999999 A 28.36 28.36 0 0 1  595.5 85.07 L 595.5 113.42999999999999" fill="#adc9f9"/><rect x="595.5" y="85.07" width="28.36" height="28.36" fill="#ddbcf3"/><path d="M 595.5 85.07 A 28.36 28.36 0 0 1 623.86 113.42999999999999 L 595.5 113.42999999999999" fill="#f6eefc"/><rect x="0" y="113.43" width="56.71" height="56.71" fill="#ecdaf8"/><path d="M 0 170.14000000000001 A 56.71 56.71 0 0 0 56.71 113.43 L 0 113.43" fill="#bed4fa"/><rect x="56.71" y="113.43" width="56.71" height="56.71" fill="#e6effd"/><rect x="56.71" y="113.43" width="56.71" height="56.71" fill="#f2f6fe"/><rect x="113.43" y="113.43" width="56.71" height="56.71" fill="#d0e0fc"/><rect x="113.43" y="113.43" width="56.71" height="56.71" fill="#ccddfb"/><rect x="170.14285714285714" y="113.42857142857143" width="56.714285714285715" height="56.714285714285715" fill="#ffffff"/><rect x="170.14" y="113.43" width="28.36" height="28.36" fill="#dce8fd"/><polygon points="198.5,113.43 198.5,141.79000000000002 170.14,141.79000000000002" fill="#debef3"/><rect x="198.5" y="113.43" width="28.36" height="28.36" fill="#f5ecfb"/><polygon points="198.5,113.43 226.86,141.79000000000002 198.5,141.79000000000002" fill="#faf5fd"/><rect x="170.14" y="141.79" width="28.36" height="28.36" fill="#e0ebfd"/><polygon points="170.14,141.79 198.5,141.79 198.5,170.14999999999998" fill="#e1c5f4"/><rect x="198.5" y="141.79" width="28.36" height="28.36" fill="#efdff9"/><polygon points="198.5,141.79 226.86,141.79 198.5,170.14999999999998" fill="#f1e4fa"/><rect x="226.85714285714286" y="113.42857142857143" width="56.714285714285715" height="56.714285714285715" fill="#ffffff"/><rect x="226.86" y="113.43" width="28.36" height="28.36" fill="#b2ccfa"/><polygon points="255.22000000000003,113.43 255.22000000000003,141.79000000000002 226.86,141.79000000000002" fill="#f0e1f9"/><rect x="255.21" y="113.43" width="28.36" height="28.36" fill="#b1cbfa"/><polygon points="255.21,113.43 283.57,141.79000000000002 255.21,141.79000000000002" fill="#d8b3f1"/><rect x="226.86" y="141.79" width="28.36" height="28.36" fill="#d3a9ef"/><polygon points="226.86,141.79 255.22000000000003,141.79 255.22000000000003,170.14999999999998" fill="#cbddfb"/><rect x="255.21" y="141.79" width="28.36" height="28.36" fill="#a9c6f9"/><polygon points="255.21,141.79 283.57,141.79 255.21,170.14999999999998" fill="#f4e9fb"/><rect x="283.57142857142856" y="113.42857142857143" width="56.714285714285715" height="56.714285714285715" fill="#ffffff"/><rect x="283.57" y="113.43" width="28.36" height="28.36" fill="#d3a9ef"/><path d="M 283.57 113.43 A 28.36 28.36 0 0 1 311.93 141.79000000000002 L 283.57 141.79000000000002" fill="#f3f7fe"/><rect x="311.93" y="113.43" width="28.36" height="28.36" fill="#dee9fd"/><path d="M 311.93 141.79000000000002 A 28.36 28.36 0 0 1  340.29 113.43 L 340.29 141.79000000000002" fill="#aac7f9"/><rect x="283.57" y="141.79" width="28.36" height="28.36" fill="#eaf1fe"/><path d="M 283.57 170.14999999999998 A 28.36 28.36 0 0 0 311.93 141.79 L 283.57 141.79" fill="#f2e5fa"/><rect x="311.93" y="141.79" width="28.36" height="28.36" fill="#aac7f9"/><path d="M 311.93 141.79 A 28.36 28.36 0 0 0 340.29 170.14999999999998 L 340.29 141.79" fill="#f2e6fa"/><rect x="340.2857142857143" y="113.42857142857143" width="56.714285714285715" height="56.714285714285715" fill="#ffffff"/><rect x="340.29" y="113.43" width="28.36" height="28.36" fill="#fcfdff"/><path d="M 340.29 141.79000000000002 A 28.36 28.36 0 0 0 368.65000000000003 113.43 L 340.29 113.43" fill="#dce8fd"/><rect x="368.64" y="113.43" width="28.36" height="28.36" fill="#bfd5fb"/><path d="M 368.64 113.43 A 28.36 28.36 0 0 0 397 141.79000000000002 L 397 113.43" fill="#cc9aec"/><rect x="340.29" y="141.79" width="28.36" height="28.36" fill="#d4e3fc"/><path d="M 340.29 141.79 A 28.36 28.36 0 0 1 368.65000000000003 170.14999999999998 L 340.29 170.14999999999998" fill="#c68fea"/><rect x="368.64" y="141.79" width="28.36" height="28.36" fill="#e5ccf5"/><path d="M 368.64 170.14999999999998 A 28.36 28.36 0 0 1  397 141.79 L 397 170.14999999999998" fill="#e9d3f7"/><rect x="397" y="113.43" width="56.71" height="56.71" fill="#eddbf8"/><path d="M 397 170.14000000000001 A 56.71 56.71 0 0 0 453.71 113.43 L 397 113.43" fill="#a9c6f9"/><rect x="453.7142857142857" y="113.42857142857143" width="56.714285714285715" height="56.714285714285715" fill="#ffffff"/><rect x="453.71" y="113.43" width="28.36" height="28.36" fill="#ebd7f7"/><path d="M 453.71 113.43 A 28.36 28.36 0 0 0 482.07 141.79000000000002 L 482.07 113.43" fill="#dcbaf2"/><rect x="482.07" y="113.43" width="28.36" height="28.36" fill="#dfc0f3"/><path d="M 482.07 141.79000000000002 A 28.36 28.36 0 0 0 510.43 113.43 L 482.07 113.43" fill="#d4e3fc"/><rect x="453.71" y="141.79" width="28.36" height="28.36" fill="#e5cbf5"/><path d="M 453.71 170.14999999999998 A 28.36 28.36 0 0 1  482.07 141.79 L 482.07 170.14999999999998" fill="#ebd8f8"/><rect x="482.07" y="141.79" width="28.36" height="28.36" fill="#e3c7f5"/><path d="M 482.07 141.79 A 28.36 28.36 0 0 1 510.43 170.14999999999998 L 482.07 170.14999999999998" fill="#cddefc"/><rect x="510.43" y="113.43" width="56.71" height="56.71" fill="#c690ea"/><path d="M 510.43 113.43 A 56.71 56.71 0 0 1  567.14 170.14000000000001 L 510.43 113.43 A 56.71 56.71 0 0 0 567.14 170.14000000000001" fill="#d9b5f1"/><rect x="567.14" y="113.43" width="56.71" height="56.71" fill="#dfeafd"/><path d="M 567.14 113.43 A 56.71 56.71 0 0 1 623.85 170.14000000000001 L 567.14 170.14000000000001" fill="#dde8fd"/><rect x="0" y="170.14" width="56.71" height="56.71" fill="#ca96eb"/><path d="M 0 226.85 A 56.71 56.71 0 0 1  56.71 170.14 L 0 226.85 A 56.71 56.71 0 0 0 56.71 170.14" fill="#cedffc"/><rect x="56.71" y="170.14" width="56.71" height="56.71" fill="#d1e1fc"/><rect x="56.71" y="170.14" width="56.71" height="56.71" fill="#d5acef"/><rect x="113.42857142857143" y="170.14285714285714" width="56.714285714285715" height="56.714285714285715" fill="#ffffff"/><rect x="113.43" y="170.14" width="28.36" height="28.36" fill="#d9b3f1"/><polygon points="141.79000000000002,170.14 141.79000000000002,198.5 113.43,198.5" fill="#d4abef"/><rect x="141.79" y="170.14" width="28.36" height="28.36" fill="#d5e3fc"/><polygon points="141.79,170.14 170.14999999999998,198.5 141.79,198.5" fill="#c996eb"/><rect x="113.43" y="198.5" width="28.36" height="28.36" fill="#debff3"/><polygon points="113.43,198.5 141.79000000000002,198.5 113.43,226.86" fill="#bcd3fa"/><rect x="141.79" y="198.5" width="28.36" height="28.36" fill="#d3e2fc"/><polygon points="141.79,198.5 170.14999999999998,198.5 170.14999999999998,226.86" fill="#c7dafb"/><rect x="170.14" y="170.14" width="56.71" height="56.71" fill="#e6cdf6"/><rect x="170.14" y="170.14" width="56.71" height="56.71" fill="#cadcfb"/><rect x="226.86" y="170.14" width="56.71" height="56.71" fill="#ccddfb"/><path d="M 226.86 226.85 A 56.71 56.71 0 0 1  283.57 170.14 L 283.57 226.85" fill="#c791ea"/><rect x="283.57" y="170.14" width="56.71" height="56.71" fill="#d8b2f1"/><path d="M 283.57 170.14 A 56.71 56.71 0 0 1 340.28 226.85 L 283.57 226.85" fill="#c4d8fb"/><rect x="340.2857142857143" y="170.14285714285714" width="56.714285714285715" height="56.714285714285715" fill="#ffffff"/><rect x="340.29" y="170.14" width="28.36" height="28.36" fill="#dcbbf2"/><path d="M 340.29 170.14 A 28.36 28.36 0 0 1 368.65000000000003 198.5 L 340.29 198.5" fill="#b8d0fa"/><rect x="368.64" y="170.14" width="28.36" height="28.36" fill="#dde8fd"/><path d="M 368.64 198.5 A 28.36 28.36 0 0 1  397 170.14 L 397 198.5" fill="#f4e9fb"/><rect x="340.29" y="198.5" width="28.36" height="28.36" fill="#fcfafe"/><path d="M 340.29 226.86 A 28.36 28.36 0 0 0 368.65000000000003 198.5 L 340.29 198.5" fill="#c9dbfb"/><rect x="368.64" y="198.5" width="28.36" height="28.36" fill="#d6e4fc"/><path d="M 368.64 198.5 A 28.36 28.36 0 0 0 397 226.86 L 397 198.5" fill="#dfeafd"/><rect x="397" y="170.14285714285714" width="56.714285714285715" height="56.714285714285715" fill="#ffffff"/><rect x="397" y="170.14" width="28.36" height="28.36" fill="#d0a3ee"/><path d="M 397 198.5 A 28.36 28.36 0 0 1  425.36 170.14 L 425.36 198.5" fill="#dfbff3"/><rect x="425.36" y="170.14" width="28.36" height="28.36" fill="#e0c1f3"/><path d="M 425.36 170.14 A 28.36 28.36 0 0 1 453.72 198.5 L 425.36 198.5" fill="#f5f8fe"/><rect x="397" y="198.5" width="28.36" height="28.36" fill="#f2e5fa"/><path d="M 397 198.5 A 28.36 28.36 0 0 0 425.36 226.86 L 425.36 198.5" fill="#eef4fe"/><rect x="425.36" y="198.5" width="28.36" height="28.36" fill="#dbe7fd"/><path d="M 425.36 226.86 A 28.36 28.36 0 0 0 453.72 198.5 L 425.36 198.5" fill="#f3f7fe"/><rect x="453.7142857142857" y="170.14285714285714" width="56.714285714285715" height="56.714285714285715" fill="#ffffff"/><rect x="453.71" y="170.14" width="28.36" height="28.36" fill="#d0a4ee"/><path d="M 453.71 170.14 A 28.36 28.36 0 0 0 482.07 198.5 L 482.07 170.14" fill="#d5adf0"/><rect x="482.07" y="170.14" width="28.36" height="28.36" fill="#dab6f1"/><path d="M 482.07 198.5 A 28.36 28.36 0 0 0 510.43 170.14 L 482.07 170.14" fill="#fcf9fe"/><rect x="453.71" y="198.5" width="28.36" height="28.36" fill="#dcbbf2"/><path d="M 453.71 226.86 A 28.36 28.36 0 0 1  482.07 198.5 L 482.07 226.86" fill="#cadcfb"/><rect x="482.07" y="198.5" width="28.36" height="28.36" fill="#c791ea"/><path d="M 482.07 198.5 A 28.36 28.36 0 0 1 510.43 226.86 L 482.07 226.86" fill="#faf6fd"/><rect x="510.42857142857144" y="170.14285714285714" width="56.714285714285715" height="56.714285714285715" fill="#ffffff"/><rect x="510.43" y="170.14" width="28.36" height="28.36" fill="#d8b3f1"/><path d="M 510.43 170.14 A 28.36 28.36 0 0 1 538.79 198.5 L 510.43 198.5" fill="#a9c6f9"/><rect x="538.79" y="170.14" width="28.36" height="28.36" fill="#e0c3f4"/><path d="M 538.79 198.5 A 28.36 28.36 0 0 1  567.15 170.14 L 567.15 198.5" fill="#d8b3f1"/><rect x="510.43" y="198.5" width="28.36" height="28.36" fill="#f7effc"/><path d="M 510.43 226.86 A 28.36 28.36 0 0 0 538.79 198.5 L 510.43 198.5" fill="#f0e2f9"/><rect x="538.79" y="198.5" width="28.36" height="28.36" fill="#dbb7f2"/><path d="M 538.79 198.5 A 28.36 28.36 0 0 0 567.15 226.86 L 567.15 198.5" fill="#e0c1f3"/><rect x="567.1428571428571" y="170.14285714285714" width="56.714285714285715" height="56.714285714285715" fill="#ffffff"/><rect x="567.14" y="170.14" width="28.36" height="28.36" fill="#f2e6fa"/><polygon points="595.5,170.14 595.5,198.5 567.14,198.5" fill="#c7dafb"/><rect x="595.5" y="170.14" width="28.36" height="28.36" fill="#c2d6fb"/><polygon points="595.5,170.14 623.86,198.5 595.5,198.5" fill="#f4eafb"/><rect x="567.14" y="198.5" width="28.36" height="28.36" fill="#eff4fe"/><polygon points="567.14,198.5 595.5,198.5 595.5,226.86" fill="#cbddfb"/><rect x="595.5" y="198.5" width="28.36" height="28.36" fill="#d5acef"/><polygon points="595.5,198.5 623.86,198.5 595.5,226.86" fill="#f4eafb"/><rect x="0" y="226.86" width="56.71" height="56.71" fill="#c0d6fb"/><path d="M 0 226.86 A 56.71 56.71 0 0 0 56.71 283.57 L 56.71 226.86" fill="#c8dbfb"/><rect x="56.71" y="226.86" width="56.71" height="56.71" fill="#ddbdf3"/><path d="M 56.71 226.86 A 56.71 56.71 0 0 0 113.42 283.57 L 113.42 226.86" fill="#fcfdff"/><rect x="113.43" y="226.86" width="56.71" height="56.71" fill="#bfd5fb"/><path d="M 113.43 226.86 A 56.71 56.71 0 0 0 170.14000000000001 283.57 L 170.14000000000001 226.86" fill="#f9fbff"/><rect x="170.14" y="226.86" width="56.71" height="56.71" fill="#b2ccfa"/><rect x="170.14" y="226.86" width="56.71" height="56.71" fill="#d6aef0"/><rect x="226.86" y="226.86" width="56.71" height="56.71" fill="#debef3"/><polygon points="226.86,226.86 283.57,226.86 226.86,283.57" fill="#c2d6fb"/><rect x="283.57" y="226.86" width="56.71" height="56.71" fill="#f4eafb"/><polygon points="283.57,226.86 340.28,283.57 283.57,283.57" fill="#c8dbfb"/><rect x="340.29" y="226.86" width="56.71" height="56.71" fill="#f8f0fc"/><rect x="340.29" y="226.86" width="56.71" height="56.71" fill="#cbdcfb"/><rect x="397" y="226.85714285714286" width="56.714285714285715" height="56.714285714285715" fill="#ffffff"/><rect x="397" y="226.86" width="28.36" height="28.36" fill="#ddbcf2"/><path d="M 397 255.22000000000003 A 28.36 28.36 0 0 1  425.36 226.86 L 425.36 255.22000000000003" fill="#d6aff0"/><rect x="425.36" y="226.86" width="28.36" height="28.36" fill="#cd9cec"/><path d="M 425.36 226.86 A 28.36 28.36 0 0 1 453.72 255.22000000000003 L 425.36 255.22000000000003" fill="#aec9f9"/><rect x="397" y="255.21" width="28.36" height="28.36" fill="#cbddfb"/><path d="M 397 255.21 A 28.36 28.36 0 0 0 425.36 283.57 L 425.36 255.21" fill="#d3a8ef"/><rect x="425.36" y="255.21" width="28.36" height="28.36" fill="#e5ccf6"/><path d="M 425.36 283.57 A 28.36 28.36 0 0 0 453.72 255.21 L 425.36 255.21" fill="#d4e2fc"/><rect x="453.71" y="226.86" width="56.71" height="56.71" fill="#cd9ded"/><path d="M 453.71 283.57 A 56.71 56.71 0 0 1  510.41999999999996 226.86 L 510.41999999999996 283.57" fill="#f1e3fa"/><rect x="510.42857142857144" y="226.85714285714286" width="56.714285714285715" height="56.714285714285715" fill="#ffffff"/><rect x="510.43" y="226.86" width="28.36" height="28.36" fill="#f4f8fe"/><path d="M 510.43 255.22000000000003 A 28.36 28.36 0 0 1  538.79 226.86 L 538.79 255.22000000000003" fill="#e3edfd"/><rect x="538.79" y="226.86" width="28.36" height="28.36" fill="#e1ebfd"/><path d="M 538.79 226.86 A 28.36 28.36 0 0 1 567.15 255.22000000000003 L 538.79 255.22000000000003" fill="#d0e0fc"/><rect x="510.43" y="255.21" width="28.36" height="28.36" fill="#b1ccfa"/><path d="M 510.43 255.21 A 28.36 28.36 0 0 0 538.79 283.57 L 538.79 255.21" fill="#f7fafe"/><rect x="538.79" y="255.21" width="28.36" height="28.36" fill="#c4d8fb"/><path d="M 538.79 283.57 A 28.36 28.36 0 0 0 567.15 255.21 L 538.79 255.21" fill="#e8d2f7"/><rect x="567.1428571428571" y="226.85714285714286" width="56.714285714285715" height="56.714285714285715" fill="#ffffff"/><rect x="567.14" y="226.86" width="28.36" height="28.36" fill="#cc9aec"/><path d="M 567.14 226.86 A 28.36 28.36 0 0 1 595.5 255.22000000000003 L 567.14 255.22000000000003" fill="#dab6f1"/><rect x="595.5" y="226.86" width="28.36" height="28.36" fill="#acc8f9"/><path d="M 595.5 255.22000000000003 A 28.36 28.36 0 0 1  623.86 226.86 L 623.86 255.22000000000003" fill="#e9f1fd"/><rect x="567.14" y="255.21" width="28.36" height="28.36" fill="#f2e5fa"/><path d="M 567.14 283.57 A 28.36 28.36 0 0 0 595.5 255.21 L 567.14 255.21" fill="#ddbbf2"/><rect x="595.5" y="255.21" width="28.36" height="28.36" fill="#aac6f9"/><path d="M 595.5 255.21 A 28.36 28.36 0 0 0 623.86 283.57 L 623.86 255.21" fill="#abc7f9"/><rect x="0" y="283.57" width="56.71" height="56.71" fill="#ccddfb"/><path d="M 0 340.28 A 56.71 56.71 0 0 0 56.71 283.57 L 0 283.57" fill="#d4abef"/><rect x="56.714285714285715" y="283.57142857142856" width="56.714285714285715" height="56.714285714285715" fill="#ffffff"/><rect x="56.71" y="283.57" width="28.36" height="28.36" fill="#fdfcfe"/><path d="M 56.71 283.57 A 28.36 28.36 0 0 0 85.07 311.93 L 85.07 283.57" fill="#c7dafb"/><rect x="85.07" y="283.57" width="28.36" height="28.36" fill="#dfeafd"/><path d="M 85.07 311.93 A 28.36 28.36 0 0 0 113.42999999999999 283.57 L 85.07 283.57" fill="#dae7fc"/><rect x="56.71" y="311.93" width="28.36" height="28.36" fill="#e5ccf6"/><path d="M 56.71 340.29 A 28.36 28.36 0 0 1  85.07 311.93 L 85.07 340.29" fill="#bbd2fa"/><rect x="85.07" y="311.93" width="28.36" height="28.36" fill="#f9fbff"/><path d="M 85.07 311.93 A 28.36 28.36 0 0 1 113.42999999999999 340.29 L 85.07 340.29" fill="#bad1fa"/><rect x="113.42857142857143" y="283.57142857142856" width="56.714285714285715" height="56.714285714285715" fill="#ffffff"/><rect x="113.43" y="283.57" width="28.36" height="28.36" fill="#d3e2fc"/><polygon points="141.79000000000002,283.57 141.79000000000002,311.93 113.43,311.93" fill="#dfeafd"/><rect x="141.79" y="283.57" width="28.36" height="28.36" fill="#ca97ec"/><polygon points="141.79,283.57 170.14999999999998,311.93 141.79,311.93" fill="#f8fbff"/><rect x="113.43" y="311.93" width="28.36" height="28.36" fill="#f5f8fe"/><polygon points="113.43,311.93 141.79000000000002,311.93 113.43,340.29" fill="#cadcfb"/><rect x="141.79" y="311.93" width="28.36" height="28.36" fill="#cb99ec"/><polygon points="141.79,311.93 170.14999999999998,311.93 170.14999999999998,340.29" fill="#ebd8f8"/><rect x="170.14285714285714" y="283.57142857142856" width="56.714285714285715" height="56.714285714285715" fill="#ffffff"/><rect x="170.14" y="283.57" width="28.36" height="28.36" fill="#ebd8f8"/><path d="M 170.14 311.93 A 28.36 28.36 0 0 1 198.5 283.57 L 198.5 290.65999999999997 A 21.27 21.27 0 0 0 177.23 311.93" fill="#d6aef0"/><rect x="198.5" y="283.57" width="28.36" height="28.36" fill="#dfeafd"/><path d="M 198.5 283.57 A 28.36 28.36 0 0 1 226.86 311.93 L 219.77 311.93 A 21.27 21.27 0 0 0 198.5 290.65999999999997" fill="#e4edfd"/><rect x="170.14" y="311.93" width="28.36" height="28.36" fill="#fafcff"/><path d="M 170.14 311.93 A 28.36 28.36 0 0 0 198.5 340.29 L 198.5 333.2 A 21.27 21.27 0 0 1 177.23 311.93" fill="#e0eafd"/><rect x="198.5" y="311.93" width="28.36" height="28.36" fill="#cb99ec"/><path d="M 198.5 340.29 A 28.36 28.36 0 0 0 226.86 311.93 L 219.77 311.93 A 21.27 21.27 0 0 1 198.5 333.2" fill="#ffffff"/><rect x="226.85714285714286" y="283.57142857142856" width="56.714285714285715" height="56.714285714285715" fill="#ffffff"/><rect x="226.86" y="283.57" width="28.36" height="28.36" fill="#c4d8fb"/><circle cx="241.04000000000002" cy="297.75" r="14.18" fill="#fdfcfe"/><rect x="255.21" y="283.57" width="28.36" height="28.36" fill="#c3d7fb"/><rect x="255.21" y="283.57" width="28.36" height="28.36" fill="#c2d6fb"/><rect x="226.86" y="311.93" width="28.36" height="28.36" fill="#d9b4f1"/><circle cx="241.04000000000002" cy="326.11" r="14.18" fill="#f1f6fe"/><rect x="255.21" y="311.93" width="28.36" height="28.36" fill="#f5f9fe"/><rect x="255.21" y="311.93" width="28.36" height="28.36" fill="#dce8fd"/><rect x="283.57142857142856" y="283.57142857142856" width="56.714285714285715" height="56.714285714285715" fill="#ffffff"/><rect x="283.57" y="283.57" width="28.36" height="28.36" fill="#c9dbfb"/><path d="M 283.57 283.57 A 28.36 28.36 0 0 0 311.93 311.93 L 311.93 283.57" fill="#feffff"/><rect x="311.93" y="283.57" width="28.36" height="28.36" fill="#f5ebfb"/><path d="M 311.93 311.93 A 28.36 28.36 0 0 0 340.29 283.57 L 311.93 283.57" fill="#d8e5fc"/><rect x="283.57" y="311.93" width="28.36" height="28.36" fill="#cadcfb"/><path d="M 283.57 340.29 A 28.36 28.36 0 0 1  311.93 311.93 L 311.93 340.29" fill="#d9b4f1"/><rect x="311.93" y="311.93" width="28.36" height="28.36" fill="#dce8fd"/><path d="M 311.93 311.93 A 28.36 28.36 0 0 1 340.29 340.29 L 311.93 340.29" fill="#cddefc"/><rect x="340.2857142857143" y="283.57142857142856" width="56.714285714285715" height="56.714285714285715" fill="#ffffff"/><rect x="340.29" y="283.57" width="28.36" height="28.36" fill="#faf6fd"/><polygon points="368.65000000000003,283.57 368.65000000000003,311.93 340.29,311.93" fill="#d4aaef"/><rect x="368.64" y="283.57" width="28.36" height="28.36" fill="#c7dafb"/><polygon points="368.64,283.57 397,283.57 368.64,311.93" fill="#dfc0f3"/><rect x="340.29" y="311.93" width="28.36" height="28.36" fill="#e7effd"/><polygon points="340.29,311.93 368.65000000000003,311.93 368.65000000000003,340.29" fill="#c6d9fb"/><rect x="368.64" y="311.93" width="28.36" height="28.36" fill="#f8f0fc"/><polygon points="368.64,311.93 397,340.29 368.64,340.29" fill="#edf3fe"/><rect x="397" y="283.57142857142856" width="56.714285714285715" height="56.714285714285715" fill="#ffffff"/><rect x="397" y="283.57" width="28.36" height="28.36" fill="#aec9f9"/><polygon points="425.36,283.57 425.36,311.93 397,311.93" fill="#b3cdfa"/><rect x="425.36" y="283.57" width="28.36" height="28.36" fill="#d0e0fc"/><polygon points="425.36,283.57 453.72,311.93 425.36,311.93" fill="#e0eafd"/><rect x="397" y="311.93" width="28.36" height="28.36" fill="#d1a5ee"/><polygon points="397,311.93 425.36,311.93 397,340.29" fill="#dbb8f2"/><rect x="425.36" y="311.93" width="28.36" height="28.36" fill="#b6cffa"/><polygon points="425.36,311.93 453.72,311.93 453.72,340.29" fill="#ddbcf2"/><rect x="453.71" y="283.57" width="56.71" height="56.71" fill="#f5ebfb"/><polygon points="510.41999999999996,283.57 510.41999999999996,340.28 453.71,340.28" fill="#c892eb"/><rect x="510.43" y="283.57" width="56.71" height="56.71" fill="#eddbf8"/><rect x="510.43" y="283.57" width="56.71" height="56.71" fill="#cfdffc"/><rect x="567.1428571428571" y="283.57142857142856" width="56.714285714285715" height="56.714285714285715" fill="#ffffff"/><rect x="567.14" y="283.57" width="28.36" height="28.36" fill="#bcd3fa"/><path d="M 567.14 311.93 A 28.36 28.36 0 0 1 595.5 283.57 L 595.5 290.65999999999997 A 21.27 21.27 0 0 0 574.23 311.93" fill="#afcaf9"/><rect x="595.5" y="283.57" width="28.36" height="28.36" fill="#c1d6fb"/><path d="M 595.5 283.57 A 28.36 28.36 0 0 1 623.86 311.93 L 616.77 311.93 A 21.27 21.27 0 0 0 595.5 290.65999999999997" fill="#e4edfd"/><rect x="567.14" y="311.93" width="28.36" height="28.36" fill="#e5cdf6"/><path d="M 567.14 311.93 A 28.36 28.36 0 0 0 595.5 340.29 L 595.5 333.2 A 21.27 21.27 0 0 1 574.23 311.93" fill="#b8d0fa"/><rect x="595.5" y="311.93" width="28.36" height="28.36" fill="#e3c7f5"/><path d="M 595.5 340.29 A 28.36 28.36 0 0 0 623.86 311.93 L 616.77 311.93 A 21.27 21.27 0 0 1 595.5 333.2" fill="#eff5fe"/><rect x="0" y="340.2857142857143" width="56.714285714285715" height="56.714285714285715" fill="#ffffff"/><rect x="0" y="340.29" width="28.36" height="28.36" fill="#d1a6ee"/><circle cx="14.18" cy="354.47" r="14.18" fill="#c9dbfb"/><rect x="28.36" y="340.29" width="28.36" height="28.36" fill="#dbe7fc"/><rect x="28.36" y="340.29" width="28.36" height="28.36" fill="#ecdaf8"/><rect x="0" y="368.64" width="28.36" height="28.36" fill="#d8b2f1"/><circle cx="14.18" cy="382.82" r="14.18" fill="#e2c6f4"/><rect x="28.36" y="368.64" width="28.36" height="28.36" fill="#fcfafe"/><rect x="28.36" y="368.64" width="28.36" height="28.36" fill="#dfbff3"/><rect x="56.714285714285715" y="340.2857142857143" width="56.714285714285715" height="56.714285714285715" fill="#ffffff"/><rect x="56.71" y="340.29" width="28.36" height="28.36" fill="#e8d2f7"/><path d="M 56.71 340.29 A 28.36 28.36 0 0 0 85.07 368.65000000000003 L 85.07 340.29" fill="#edf3fe"/><rect x="85.07" y="340.29" width="28.36" height="28.36" fill="#faf5fd"/><path d="M 85.07 368.65000000000003 A 28.36 28.36 0 0 0 113.42999999999999 340.29 L 85.07 340.29" fill="#cc9bec"/><rect x="56.71" y="368.64" width="28.36" height="28.36" fill="#c2d7fb"/><path d="M 56.71 397 A 28.36 28.36 0 0 1  85.07 368.64 L 85.07 397" fill="#b4cdfa"/><rect x="85.07" y="368.64" width="28.36" height="28.36" fill="#e7d1f6"/><path d="M 85.07 368.64 A 28.36 28.36 0 0 1 113.42999999999999 397 L 85.07 397" fill="#dde8fd"/><rect x="113.43" y="340.29" width="56.71" height="56.71" fill="#d7b1f0"/><polygon points="170.14000000000001,340.29 170.14000000000001,397 113.43,397" fill="#b4cdfa"/><rect x="170.14" y="340.29" width="56.71" height="56.71" fill="#f4f8fe"/><polygon points="170.14,340.29 226.85,340.29 226.85,397" fill="#f3f7fe"/><rect x="226.85714285714286" y="340.2857142857143" width="56.714285714285715" height="56.714285714285715" fill="#ffffff"/><rect x="226.86" y="340.29" width="28.36" height="28.36" fill="#e1ebfd"/><path d="M 226.86 368.65000000000003 A 28.36 28.36 0 0 1  255.22000000000003 340.29 L 255.22000000000003 368.65000000000003" fill="#ebd8f8"/><rect x="255.21" y="340.29" width="28.36" height="28.36" fill="#fdfafe"/><path d="M 255.21 340.29 A 28.36 28.36 0 0 1 283.57 368.65000000000003 L 255.21 368.65000000000003" fill="#dce8fd"/><rect x="226.86" y="368.64" width="28.36" height="28.36" fill="#e2c5f4"/><path d="M 226.86 368.64 A 28.36 28.36 0 0 0 255.22000000000003 397 L 255.22000000000003 368.64" fill="#ce9fed"/><rect x="255.21" y="368.64" width="28.36" height="28.36" fill="#efe0f9"/><path d="M 255.21 397 A 28.36 28.36 0 0 0 283.57 368.64 L 255.21 368.64" fill="#b0cbfa"/><rect x="283.57" y="340.29" width="56.71" height="56.71" fill="#d5acef"/><rect x="283.57" y="340.29" width="56.71" height="56.71" fill="#dab5f1"/><rect x="340.29" y="340.29" width="56.71" height="56.71" fill="#eef4fe"/><rect x="340.29" y="340.29" width="56.71" height="56.71" fill="#bcd3fa"/><rect x="397" y="340.29" width="56.71" height="56.71" fill="#e9d3f7"/><rect x="397" y="340.29" width="56.71" height="56.71" fill="#ecdaf8"/><rect x="453.7142857142857" y="340.2857142857143" width="56.714285714285715" height="56.714285714285715" fill="#ffffff"/><rect x="453.71" y="340.29" width="28.36" height="28.36" fill="#d7e4fc"/><path d="M 453.71 368.65000000000003 A 28.36 28.36 0 0 1 482.07 340.29 L 482.07 347.38 A 21.27 21.27 0 0 0 460.79999999999995 368.65000000000003" fill="#efdff9"/><rect x="482.07" y="340.29" width="28.36" height="28.36" fill="#bcd2fa"/><path d="M 482.07 340.29 A 28.36 28.36 0 0 1 510.43 368.65000000000003 L 503.34 368.65000000000003 A 21.27 21.27 0 0 0 482.07 347.38" fill="#cd9eed"/><rect x="453.71" y="368.64" width="28.36" height="28.36" fill="#b6cffa"/><path d="M 453.71 368.64 A 28.36 28.36 0 0 0 482.07 397 L 482.07 389.90999999999997 A 21.27 21.27 0 0 1 460.79999999999995 368.64" fill="#e7effd"/><rect x="482.07" y="368.64" width="28.36" height="28.36" fill="#dae6fc"/><path d="M 482.07 397 A 28.36 28.36 0 0 0 510.43 368.64 L 503.34 368.64 A 21.27 21.27 0 0 1 482.07 389.90999999999997" fill="#d0e0fc"/><rect x="510.42857142857144" y="340.2857142857143" width="56.714285714285715" height="56.714285714285715" fill="#ffffff"/><rect x="510.43" y="340.29" width="28.36" height="28.36" fill="#d7b1f0"/><circle cx="524.61" cy="354.47" r="14.18" fill="#c791ea"/><rect x="538.79" y="340.29" width="28.36" height="28.36" fill="#c892eb"/><rect x="538.79" y="340.29" width="28.36" height="28.36" fill="#b9d1fa"/><rect x="510.43" y="368.64" width="28.36" height="28.36" fill="#dde9fd"/><circle cx="524.61" cy="382.82" r="14.18" fill="#c7dafb"/><rect x="538.79" y="368.64" width="28.36" height="28.36" fill="#fcfdff"/><rect x="538.79" y="368.64" width="28.36" height="28.36" fill="#b8d0fa"/><rect x="567.1428571428571" y="340.2857142857143" width="56.714285714285715" height="56.714285714285715" fill="#ffffff"/><rect x="567.14" y="340.29" width="28.36" height="28.36" fill="#f0e2fa"/><path d="M 567.14 368.65000000000003 A 28.36 28.36 0 0 1 595.5 340.29 L 595.5 347.38 A 21.27 21.27 0 0 0 574.23 368.65000000000003" fill="#d1a5ee"/><rect x="595.5" y="340.29" width="28.36" height="28.36" fill="#debef3"/><path d="M 595.5 340.29 A 28.36 28.36 0 0 1 623.86 368.65000000000003 L 616.77 368.65000000000003 A 21.27 21.27 0 0 0 595.5 347.38" fill="#d4e2fc"/><rect x="567.14" y="368.64" width="28.36" height="28.36" fill="#fcf9fe"/><path d="M 567.14 368.64 A 28.36 28.36 0 0 0 595.5 397 L 595.5 389.90999999999997 A 21.27 21.27 0 0 1 574.23 368.64" fill="#fcf9fe"/><rect x="595.5" y="368.64" width="28.36" height="28.36" fill="#dae7fc"/><path d="M 595.5 397 A 28.36 28.36 0 0 0 623.86 368.64 L 616.77 368.64 A 21.27 21.27 0 0 1 595.5 389.90999999999997" fill="#eef4fe"/></g></svg>